<svg xmlns="http://www.w3.org/2000/svg" width="256" height="160" fill="none" viewBox="0 0 256 160"><circle cx="213.5" cy="12.5" r="12.25" fill="#202020" stroke="#4C4C4C" stroke-width=".5"/><rect width="194.5" height="128.5" x="31.25" y="31.25" fill="#202020" stroke="#4C4C4C" stroke-width=".5" rx="9.75"/><path stroke="#4C4C4C" stroke-width=".5" d="M31 133H226"/><rect width="12" height="12" x="42" y="42" fill="#151515" rx="4"/><rect width="82" height="5" x="59" y="45" fill="#151515" rx="2.5"/><rect width="12" height="12" x="42" y="60" fill="#151515" rx="4"/><rect width="82" height="6" x="59" y="63" fill="#151515" rx="3"/><rect width="12" height="12" x="42" y="78" fill="#151515" rx="4"/><rect width="82" height="5" x="59" y="82" fill="#151515" rx="2.5"/><rect width="12" height="11" x="42" y="97" fill="#151515" rx="4"/><rect width="82" height="5" x="59" y="100" fill="#151515" rx="2.5"/><rect width="12" height="12" x="42" y="115" fill="#151515" rx="4"/><rect width="82" height="5" x="59" y="118" fill="#151515" rx="2.5"/><rect width="12" height="11" x="42" y="140" fill="#151515" rx="4"/><rect width="82" height="5" x="59" y="143" fill="#151515" rx="2.5"/><rect width="12" height="11" x="42" y="140" fill="#151515" rx="4"/><rect width="82" height="5" x="59" y="143" fill="#151515" rx="2.5"/></svg>