<svg width="256" height="160" viewBox="0 0 256 160" fill="none" xmlns="http://www.w3.org/2000/svg">
<circle cx="213.5" cy="12.5" r="12.25" fill="#C7C7C7" stroke="#B9B9B9" stroke-width="0.5"/>
<rect x="31.25" y="31.25" width="194.5" height="128.5" rx="9.75" fill="#C7C7C7" stroke="#B9B9B9" stroke-width="0.5"/>
<path d="M31 133H226" stroke="#B9B9B9" stroke-width="0.5"/>
<rect x="42" y="42" width="12" height="12" rx="4" fill="#E8E8E8"/>
<rect x="59" y="45" width="82" height="5" rx="2.5" fill="#E8E8E8"/>
<rect x="42" y="60" width="12" height="12" rx="4" fill="#E8E8E8"/>
<rect x="59" y="63" width="82" height="6" rx="3" fill="#E8E8E8"/>
<rect x="42" y="78" width="12" height="12" rx="4" fill="#E8E8E8"/>
<rect x="59" y="82" width="82" height="5" rx="2.5" fill="#E8E8E8"/>
<rect x="42" y="97" width="12" height="11" rx="4" fill="#E8E8E8"/>
<rect x="59" y="100" width="82" height="5" rx="2.5" fill="#E8E8E8"/>
<rect x="42" y="115" width="12" height="12" rx="4" fill="#E8E8E8"/>
<rect x="59" y="118" width="82" height="5" rx="2.5" fill="#E8E8E8"/>
<rect x="42" y="140" width="12" height="11" rx="4" fill="#151515"/>
<rect x="59" y="143" width="82" height="5" rx="2.5" fill="#151515"/>
<rect x="42" y="140" width="12" height="11" rx="4" fill="#E8E8E8"/>
<rect x="59" y="143" width="82" height="5" rx="2.5" fill="#E8E8E8"/>
</svg>
